<svg width="52" height="61" viewBox="0 0 52 61" fill="none" xmlns="http://www.w3.org/2000/svg">
<path d="M22.164 17.5009C20.7174 12.0853 19.0629 5.22577 13.4087 2.76552C10.8492 1.65186 7.84466 1.74909 5.38292 3.08478C1.98095 4.93064 1.56582 8.47466 2.31855 11.9997C3.15554 15.9193 5.10005 19.7402 6.89079 23.2845C8.89253 27.2464 11.112 31.0485 13.4087 34.8395C15.4993 38.2905 16.8736 41.849 18.3457 45.5963C19.609 48.8121 20.9294 52.008 22.3099 55.1743C22.6345 55.9187 22.9651 56.6605 23.3071 57.3969C23.5596 57.9407 23.9084 59.3763 24.2799 58.9073C24.7953 58.2568 24.5299 57.2603 24.669 56.4391C25.0488 54.197 25.7228 52.1016 26.7363 50.0661C29.1567 45.2046 32.5228 40.7946 35.5646 36.3253C39.177 31.0175 43.0664 25.8156 46.2899 20.2515C48.3066 16.7704 50.8559 12.2428 49.7191 8.03341C48.971 5.26349 46.0223 4.05533 43.4444 3.64964C39.389 3.01143 35.8303 5.12724 32.5245 7.22297C28.2235 9.94965 24.2783 13.1085 22.6991 18.1885C22.0263 20.3526 21.8864 22.7736 22.164 25.0159" stroke="#FF613E" stroke-width="3" stroke-linecap="round"/>
</svg>
