<svg width="33" height="25" viewBox="0 0 33 25" fill="none" xmlns="http://www.w3.org/2000/svg">
<path d="M32.3516 10.0137L22.6395 0.301765C22.2373 -0.100463 21.5851 -0.100531 21.1827 0.301765L18.269 3.21529H18.269L16.0838 5.40052L13.8988 3.21536H13.8987L10.9849 0.301697C10.5826 -0.100531 9.93043 -0.1006 9.52813 0.301697L0.301757 9.52821C0.108506 9.72139 0 9.98345 0 10.2566C0 10.5299 0.108575 10.7919 0.301757 10.9851L3.21542 13.8987C3.41657 14.0998 3.68021 14.2004 3.94378 14.2004C4.09569 14.2004 4.24719 14.1659 4.38715 14.0991L14.384 24.096C14.3841 24.0961 14.3842 24.0962 14.3843 24.0964C14.9867 24.6988 15.7781 25 16.5695 25C17.3608 25 18.1522 24.6988 18.7546 24.0963C19.2981 23.5529 19.6139 22.8427 19.6549 22.0811C20.388 22.0407 21.1094 21.7415 21.6682 21.1827C22.2275 20.6234 22.5267 19.9014 22.5668 19.1677C23.3006 19.1276 24.0227 18.8283 24.5819 18.2691C24.5823 18.2687 24.5827 18.2682 24.5832 18.2678L28.2665 14.5845C28.4038 14.65 28.5546 14.686 28.7096 14.686C28.9828 14.686 29.2448 14.5774 29.438 14.3843L32.3516 11.4706C32.5448 11.2774 32.6534 11.0154 32.6534 10.7422C32.6534 10.4689 32.5448 10.2069 32.3516 10.0137ZM2.48692 10.2566L10.2566 2.48692L11.7136 3.94372L11.4069 4.25042L3.94378 11.7134L2.48692 10.2566ZM20.2115 19.7259C19.81 20.1273 19.1569 20.1275 18.7551 19.7264C18.755 19.7263 18.7549 19.7261 18.7546 19.7259L17.2978 18.2691C16.8955 17.8668 16.2432 17.8668 15.841 18.2691C15.4388 18.6714 15.4388 19.3236 15.8411 19.7259L17.2976 21.1824C17.2977 21.1824 17.2978 21.1826 17.2979 21.1827C17.2981 21.1829 17.2982 21.183 17.2983 21.1831C17.4926 21.3776 17.5996 21.6361 17.5996 21.911C17.5996 22.1861 17.4925 22.4448 17.2978 22.6395C16.8962 23.0411 16.2427 23.0411 15.841 22.6394C15.8409 22.6394 15.8408 22.6392 15.8406 22.6392L5.88624 12.6846L13.1704 5.40052L14.6271 6.85731L12.4419 9.04254C12.4417 9.04275 12.4415 9.04302 12.4413 9.04323C11.2371 10.2482 11.2372 12.2082 12.4419 13.413C13.0443 14.0155 13.8357 14.3168 14.6271 14.3168C15.4184 14.3168 16.2098 14.0156 16.8122 13.4131C16.8122 13.4131 16.8122 13.4131 16.8123 13.4131L18.9975 11.2278L22.639 14.8694C22.6392 14.8696 22.6393 14.8697 22.6394 14.8699L23.126 15.3564C23.32 15.5508 23.4269 15.8091 23.4269 16.0838C23.4269 16.3586 23.3199 16.617 23.1258 16.8115L23.1251 16.8122C23.125 16.8123 23.1249 16.8124 23.1248 16.8125C22.7233 17.2136 22.0706 17.2137 21.6689 16.8129C21.6686 16.8125 21.6683 16.8122 21.668 16.8118L20.2114 15.3554C19.8091 14.9532 19.1569 14.9532 18.7546 15.3555C18.3524 15.7578 18.3524 16.41 18.7546 16.8123L20.2106 18.2681C20.2109 18.2684 20.2112 18.2688 20.2115 18.2691C20.6131 18.6707 20.6131 19.3242 20.2115 19.7259ZM25.3103 14.627L24.5822 13.8989C24.5821 13.8989 24.582 13.8987 24.5819 13.8986C24.5818 13.8985 24.5818 13.8985 24.5818 13.8984L24.0963 13.4129C24.0963 13.4129 24.0962 13.4129 24.0962 13.4128L19.7259 9.04254C19.5327 8.84936 19.2707 8.74086 18.9975 8.74086C18.7244 8.74086 18.4623 8.84936 18.2692 9.04254L15.3556 11.9561C14.9539 12.3579 14.3003 12.3578 13.8987 11.9562C13.4972 11.5546 13.4971 10.9012 13.8987 10.4995C13.8987 10.4994 13.8987 10.4994 13.8988 10.4993L16.8116 7.5865C16.8118 7.5863 16.8121 7.58609 16.8124 7.58582C16.8127 7.58554 16.8129 7.58527 16.8131 7.58499L18.9976 5.40045L26.7673 13.1702L25.3103 14.627ZM28.7096 12.199L20.4543 3.94365L21.9111 2.48692L30.1663 10.7422L28.7096 12.199Z" fill="#FF613E"/>
</svg>
