<svg width="238" height="48" viewBox="0 0 238 48" fill="none" xmlns="http://www.w3.org/2000/svg">
<path d="M18.16 16H21.72L13.44 38H9.32L1.04 16H4.6L11.36 34.68L18.16 16Z" fill="#7D7D7D"/>
<path d="M62.08 38V7.2H65.4V38H62.08ZM86.6578 16H89.9778V38H86.6578V33.64C85.0045 36.84 82.3911 38.44 78.8178 38.44C76.3645 38.44 74.4445 37.6933 73.0578 36.2C71.6978 34.7067 71.0178 32.6267 71.0178 29.96V16H74.3378V29.32C74.3378 33.2933 76.1511 35.28 79.7778 35.28C81.9378 35.28 83.6178 34.56 84.8178 33.12C86.0445 31.68 86.6578 29.7333 86.6578 27.28V16ZM106.988 15.56C109.468 15.56 111.415 16.3067 112.828 17.8C114.241 19.2933 114.948 21.3733 114.948 24.04V38H111.628V24.68C111.628 20.7067 109.775 18.72 106.068 18.72C103.855 18.72 102.135 19.44 100.908 20.88C99.7081 22.32 99.1081 24.2667 99.1081 26.72V38H95.7881V16H99.1081V20.36C100.708 17.16 103.335 15.56 106.988 15.56ZM135.723 34.28L136.323 37.04C134.563 37.9733 132.576 38.44 130.363 38.44C127.936 38.44 126.016 37.68 124.603 36.16C123.19 34.6133 122.483 32.4267 122.483 29.6V19.12H118.243V16H122.483V10.72L125.803 10V16H135.683V19.12H125.803V29.44C125.803 33.3867 127.51 35.36 130.923 35.36C132.15 35.36 133.75 35 135.723 34.28ZM157.692 16H161.012V38H157.692V33.56C156.812 35.08 155.638 36.28 154.172 37.16C152.732 38.0133 151.078 38.44 149.212 38.44C146.225 38.44 143.758 37.3733 141.812 35.24C139.892 33.08 138.932 30.3333 138.932 27C138.932 23.6667 139.892 20.9333 141.812 18.8C143.758 16.64 146.225 15.56 149.212 15.56C151.078 15.56 152.745 16 154.212 16.88C155.678 17.76 156.838 18.9733 157.692 20.52V16ZM149.852 35.28C152.118 35.28 153.998 34.5067 155.492 32.96C156.985 31.3867 157.732 29.4 157.732 27C157.732 24.6 156.985 22.6267 155.492 21.08C153.998 19.5067 152.118 18.72 149.852 18.72C147.612 18.72 145.785 19.5067 144.372 21.08C142.985 22.6267 142.292 24.6 142.292 27C142.292 29.4267 142.998 31.4133 144.412 32.96C145.825 34.5067 147.638 35.28 149.852 35.28ZM178.081 15.56C178.561 15.56 179.014 15.5867 179.441 15.64V19.04C178.961 18.9867 178.494 18.96 178.041 18.96C175.668 18.96 173.774 19.72 172.361 21.24C170.948 22.7333 170.241 24.8533 170.241 27.6V38H166.921V16H170.241V20.92C171.681 17.3467 174.294 15.56 178.081 15.56ZM183.444 6.96C183.898 6.53333 184.458 6.32 185.124 6.32C185.791 6.32 186.338 6.53333 186.764 6.96C187.218 7.38667 187.444 7.90666 187.444 8.52C187.444 9.16 187.218 9.69333 186.764 10.12C186.338 10.5467 185.791 10.76 185.124 10.76C184.458 10.76 183.898 10.5467 183.444 10.12C183.018 9.69333 182.804 9.16 182.804 8.52C182.804 7.90666 183.018 7.38667 183.444 6.96ZM183.444 38V16H186.764V38H183.444ZM210.543 16H213.863V38H210.543V33.56C209.663 35.08 208.49 36.28 207.023 37.16C205.583 38.0133 203.93 38.44 202.063 38.44C199.076 38.44 196.61 37.3733 194.663 35.24C192.743 33.08 191.783 30.3333 191.783 27C191.783 23.6667 192.743 20.9333 194.663 18.8C196.61 16.64 199.076 15.56 202.063 15.56C203.93 15.56 205.596 16 207.063 16.88C208.53 17.76 209.69 18.9733 210.543 20.52V16ZM202.703 35.28C204.97 35.28 206.85 34.5067 208.343 32.96C209.836 31.3867 210.583 29.4 210.583 27C210.583 24.6 209.836 22.6267 208.343 21.08C206.85 19.5067 204.97 18.72 202.703 18.72C200.463 18.72 198.636 19.5067 197.223 21.08C195.836 22.6267 195.143 24.6 195.143 27C195.143 29.4267 195.85 31.4133 197.263 32.96C198.676 34.5067 200.49 35.28 202.703 35.28ZM235.333 34.28L235.933 37.04C234.173 37.9733 232.186 38.44 229.973 38.44C227.546 38.44 225.626 37.68 224.213 36.16C222.799 34.6133 222.092 32.4267 222.092 29.6V19.12H217.853V16H222.092V10.72L225.413 10V16H235.293V19.12H225.413V29.44C225.413 33.3867 227.119 35.36 230.533 35.36C231.759 35.36 233.359 35 235.333 34.28Z" fill="#7D7D7D"/>
<path d="M57.3516 23.0137L47.6395 13.3018C47.2373 12.8995 46.5851 12.8995 46.1827 13.3018L43.269 16.2153H43.269L41.0838 18.4005L38.8988 16.2154H38.8987L35.9849 13.3017C35.5826 12.8995 34.9304 12.8994 34.5281 13.3017L25.3018 22.5282C25.1085 22.7214 25 22.9835 25 23.2566C25 23.5299 25.1086 23.7919 25.3018 23.9851L28.2154 26.8987C28.4166 27.0998 28.6802 27.2004 28.9438 27.2004C29.0957 27.2004 29.2472 27.1659 29.3871 27.0991L39.384 37.096C39.3841 37.0961 39.3842 37.0962 39.3843 37.0964C39.9867 37.6988 40.7781 38 41.5695 38C42.3608 38 43.1522 37.6988 43.7546 37.0963C44.2981 36.5529 44.6139 35.8427 44.6549 35.0811C45.388 35.0407 46.1094 34.7415 46.6682 34.1827C47.2275 33.6234 47.5267 32.9014 47.5668 32.1677C48.3006 32.1276 49.0227 31.8283 49.5819 31.2691C49.5823 31.2687 49.5827 31.2682 49.5832 31.2678L53.2665 27.5845C53.4038 27.65 53.5546 27.686 53.7096 27.686C53.9828 27.686 54.2448 27.5774 54.438 27.3843L57.3516 24.4706C57.5448 24.2774 57.6534 24.0154 57.6534 23.7422C57.6534 23.4689 57.5448 23.2069 57.3516 23.0137ZM27.4869 23.2566L35.2566 15.4869L36.7136 16.9437L36.4069 17.2504L28.9438 24.7134L27.4869 23.2566ZM45.2115 32.7259C44.81 33.1273 44.1569 33.1275 43.7551 32.7264C43.755 32.7263 43.7549 32.7261 43.7546 32.7259L42.2978 31.2691C41.8955 30.8668 41.2432 30.8668 40.841 31.2691C40.4388 31.6714 40.4388 32.3236 40.8411 32.7259L42.2976 34.1824C42.2977 34.1824 42.2978 34.1826 42.2979 34.1827C42.2981 34.1829 42.2982 34.183 42.2983 34.1831C42.4926 34.3776 42.5996 34.6361 42.5996 34.911C42.5996 35.1861 42.4925 35.4448 42.2978 35.6395C41.8962 36.0411 41.2427 36.0411 40.841 35.6394C40.8409 35.6394 40.8408 35.6392 40.8406 35.6392L30.8862 25.6846L38.1704 18.4005L39.6271 19.8573L37.4419 22.0425C37.4417 22.0427 37.4415 22.043 37.4413 22.0432C36.2371 23.2482 36.2372 25.2082 37.4419 26.413C38.0443 27.0155 38.8357 27.3168 39.6271 27.3168C40.4184 27.3168 41.2098 27.0156 41.8122 26.4131C41.8122 26.4131 41.8122 26.4131 41.8123 26.4131L43.9975 24.2278L47.639 27.8694C47.6392 27.8696 47.6393 27.8697 47.6394 27.8699L48.126 28.3564C48.32 28.5508 48.4269 28.8091 48.4269 29.0838C48.4269 29.3586 48.3199 29.617 48.1258 29.8115L48.1251 29.8122C48.125 29.8123 48.1249 29.8124 48.1248 29.8125C47.7233 30.2136 47.0706 30.2137 46.6689 29.8129C46.6686 29.8125 46.6683 29.8122 46.668 29.8118L45.2114 28.3554C44.8091 27.9532 44.1569 27.9532 43.7546 28.3555C43.3524 28.7578 43.3524 29.41 43.7546 29.8123L45.2106 31.2681C45.2109 31.2684 45.2112 31.2688 45.2115 31.2691C45.6131 31.6707 45.6131 32.3242 45.2115 32.7259ZM50.3103 27.627L49.5822 26.8989C49.5821 26.8989 49.582 26.8987 49.5819 26.8986C49.5818 26.8985 49.5818 26.8985 49.5818 26.8984L49.0963 26.4129C49.0963 26.4129 49.0962 26.4129 49.0962 26.4128L44.7259 22.0425C44.5327 21.8494 44.2707 21.7409 43.9975 21.7409C43.7244 21.7409 43.4623 21.8494 43.2692 22.0425L40.3556 24.9561C39.9539 25.3579 39.3003 25.3578 38.8987 24.9562C38.4972 24.5546 38.4971 23.9012 38.8987 23.4995C38.8987 23.4994 38.8987 23.4994 38.8988 23.4993L41.8116 20.5865C41.8118 20.5863 41.8121 20.5861 41.8124 20.5858C41.8127 20.5855 41.8129 20.5853 41.8131 20.585L43.9976 18.4004L51.7673 26.1702L50.3103 27.627ZM53.7096 25.199L45.4543 16.9437L46.9111 15.4869L55.1663 23.7422L53.7096 25.199Z" fill="#FF613E"/>
</svg>
