<svg width="17" height="17" viewBox="0 0 17 17" fill="none" xmlns="http://www.w3.org/2000/svg">
<path d="M17 8.5C17 13.1944 13.1944 17 8.5 17C3.80558 17 0 13.1944 0 8.5C0 3.80558 3.80558 0 8.5 0C13.1944 0 17 3.80558 17 8.5ZM1.55073 8.5C1.55073 12.338 4.66203 15.4493 8.5 15.4493C12.338 15.4493 15.4493 12.338 15.4493 8.5C15.4493 4.66203 12.338 1.55073 8.5 1.55073C4.66203 1.55073 1.55073 4.66203 1.55073 8.5Z" fill="#7D7D7D"/>
<path d="M8.50027 3.09094C8.07349 3.09094 7.72754 3.4369 7.72754 3.86367V8.86066C7.72754 8.86066 7.72754 9.06212 7.82544 9.21365C7.89097 9.34215 7.99313 9.45381 8.12735 9.53132L11.6972 11.5924C12.0668 11.8058 12.5394 11.6791 12.7527 11.3095C12.9661 10.9399 12.8395 10.4673 12.4699 10.254L9.27299 8.40823V3.86367C9.27299 3.43691 8.92704 3.09094 8.50027 3.09094Z" fill="#7D7D7D"/>
</svg>
